<?xml version="1.0" standalone="no"?>
<!DOCTYPE svg PUBLIC "-//W3C//DTD SVG 20010904//EN"
 "http://www.w3.org/TR/2001/REC-SVG-20010904/DTD/svg10.dtd">
<svg version="1.0" xmlns="http://www.w3.org/2000/svg"
 width="324.000000pt" height="321.000000pt" viewBox="0 0 324.000000 321.000000"
 preserveAspectRatio="xMidYMid meet">

<g transform="translate(0.000000,321.000000) scale(0.100000,-0.100000)"
fill="#000000" stroke="none">
<path d="M1554 2531 c-51 -31 -67 -85 -54 -188 30 -236 84 -423 125 -423 23 0
47 38 70 112 29 92 65 302 65 380 0 57 -2 63 -39 99 -34 35 -44 39 -87 39 -30
0 -61 -7 -80 -19z"/>
<path d="M984 2310 c-11 -4 -33 -22 -47 -40 -30 -35 -36 -98 -15 -145 15 -33
133 -129 265 -215 252 -165 280 -99 82 195 -40 61 -96 134 -124 163 -47 48
-55 52 -96 51 -24 0 -53 -4 -65 -9z"/>
<path d="M2153 2305 c-75 -32 -313 -375 -313 -451 0 -58 84 -30 260 84 190
123 240 174 240 245 0 53 -26 93 -75 117 -48 23 -68 24 -112 5z"/>
<path d="M1585 1760 c-77 -17 -131 -91 -122 -167 16 -149 199 -194 289 -72 80
108 -33 270 -167 239z"/>
<path d="M765 1739 c-62 -19 -95 -64 -95 -132 0 -44 4 -54 40 -90 l41 -40 102
6 c128 8 318 47 391 80 62 29 73 55 34 81 -37 24 -185 63 -303 80 -159 24
-177 25 -210 15z"/>
<path d="M2284 1725 c-182 -29 -327 -72 -344 -104 -7 -14 -5 -23 9 -35 42 -38
216 -84 407 -107 90 -10 104 -10 137 6 95 45 103 181 14 235 -37 23 -99 24
-223 5z"/>
<path d="M1295 1361 c-86 -40 -271 -167 -332 -226 -51 -49 -53 -53 -53 -104 0
-49 3 -57 39 -92 34 -35 44 -39 87 -39 30 0 59 7 76 18 61 40 260 317 287 400
26 78 -5 91 -104 43z"/>
<path d="M1837 1373 c-15 -14 -5 -53 34 -133 49 -102 180 -300 220 -334 113
-96 272 33 204 164 -28 54 -292 259 -380 296 -37 15 -68 18 -78 7z"/>
<path d="M1597 1267 c-33 -51 -75 -223 -97 -400 -10 -79 -9 -92 9 -132 23 -52
61 -75 126 -75 37 0 52 6 82 34 33 29 37 39 41 92 5 71 -30 288 -63 392 -34
107 -67 137 -98 89z"/>
</g>
</svg>
